<mxfile host="app.diagrams.net" modified="2021-07-12T08:50:50.126Z" agent="5.0 (Windows)" etag="OapvQsYRYbtesH41msQO" version="14.8.5" type="github">
  <diagram id="VVJjqZ1Mnuhu4xMZeePM" name="Page-1">
    <mxGraphModel dx="2062" dy="1112" grid="1" gridSize="10" guides="1" tooltips="1" connect="1" arrows="1" fold="1" page="1" pageScale="1" pageWidth="827" pageHeight="1169" math="0" shadow="0">
      <root>
        <mxCell id="0" />
        <mxCell id="1" parent="0" />
        <mxCell id="g4cRuFVaqK-a2N_ttDth-14" value="USERS" style="shape=table;startSize=30;container=1;collapsible=1;childLayout=tableLayout;fixedRows=1;rowLines=0;fontStyle=1;align=center;resizeLast=1;" vertex="1" parent="1">
          <mxGeometry x="60" y="190" width="180" height="220" as="geometry" />
        </mxCell>
        <mxCell id="g4cRuFVaqK-a2N_ttDth-15" value="" style="shape=partialRectangle;collapsible=0;dropTarget=0;pointerEvents=0;fillColor=none;top=0;left=0;bottom=1;right=0;points=[[0,0.5],[1,0.5]];portConstraint=eastwest;" vertex="1" parent="g4cRuFVaqK-a2N_ttDth-14">
          <mxGeometry y="30" width="180" height="30" as="geometry" />
        </mxCell>
        <mxCell id="g4cRuFVaqK-a2N_ttDth-16" value="PK" style="shape=partialRectangle;connectable=0;fillColor=none;top=0;left=0;bottom=0;right=0;fontStyle=1;overflow=hidden;" vertex="1" parent="g4cRuFVaqK-a2N_ttDth-15">
          <mxGeometry width="30" height="30" as="geometry" />
        </mxCell>
        <mxCell id="g4cRuFVaqK-a2N_ttDth-17" value="id" style="shape=partialRectangle;connectable=0;fillColor=none;top=0;left=0;bottom=0;right=0;align=left;spacingLeft=6;fontStyle=5;overflow=hidden;" vertex="1" parent="g4cRuFVaqK-a2N_ttDth-15">
          <mxGeometry x="30" width="150" height="30" as="geometry" />
        </mxCell>
        <mxCell id="g4cRuFVaqK-a2N_ttDth-18" value="" style="shape=partialRectangle;collapsible=0;dropTarget=0;pointerEvents=0;fillColor=none;top=0;left=0;bottom=0;right=0;points=[[0,0.5],[1,0.5]];portConstraint=eastwest;" vertex="1" parent="g4cRuFVaqK-a2N_ttDth-14">
          <mxGeometry y="60" width="180" height="30" as="geometry" />
        </mxCell>
        <mxCell id="g4cRuFVaqK-a2N_ttDth-19" value="" style="shape=partialRectangle;connectable=0;fillColor=none;top=0;left=0;bottom=0;right=0;editable=1;overflow=hidden;" vertex="1" parent="g4cRuFVaqK-a2N_ttDth-18">
          <mxGeometry width="30" height="30" as="geometry" />
        </mxCell>
        <mxCell id="g4cRuFVaqK-a2N_ttDth-20" value="login" style="shape=partialRectangle;connectable=0;fillColor=none;top=0;left=0;bottom=0;right=0;align=left;spacingLeft=6;overflow=hidden;" vertex="1" parent="g4cRuFVaqK-a2N_ttDth-18">
          <mxGeometry x="30" width="150" height="30" as="geometry" />
        </mxCell>
        <mxCell id="g4cRuFVaqK-a2N_ttDth-27" value="" style="shape=partialRectangle;collapsible=0;dropTarget=0;pointerEvents=0;fillColor=none;top=0;left=0;bottom=0;right=0;points=[[0,0.5],[1,0.5]];portConstraint=eastwest;" vertex="1" parent="g4cRuFVaqK-a2N_ttDth-14">
          <mxGeometry y="90" width="180" height="30" as="geometry" />
        </mxCell>
        <mxCell id="g4cRuFVaqK-a2N_ttDth-28" value="" style="shape=partialRectangle;connectable=0;fillColor=none;top=0;left=0;bottom=0;right=0;editable=1;overflow=hidden;" vertex="1" parent="g4cRuFVaqK-a2N_ttDth-27">
          <mxGeometry width="30" height="30" as="geometry" />
        </mxCell>
        <mxCell id="g4cRuFVaqK-a2N_ttDth-29" value="password" style="shape=partialRectangle;connectable=0;fillColor=none;top=0;left=0;bottom=0;right=0;align=left;spacingLeft=6;overflow=hidden;" vertex="1" parent="g4cRuFVaqK-a2N_ttDth-27">
          <mxGeometry x="30" width="150" height="30" as="geometry" />
        </mxCell>
        <mxCell id="g4cRuFVaqK-a2N_ttDth-30" value="" style="shape=partialRectangle;collapsible=0;dropTarget=0;pointerEvents=0;fillColor=none;top=0;left=0;bottom=0;right=0;points=[[0,0.5],[1,0.5]];portConstraint=eastwest;" vertex="1" parent="g4cRuFVaqK-a2N_ttDth-14">
          <mxGeometry y="120" width="180" height="30" as="geometry" />
        </mxCell>
        <mxCell id="g4cRuFVaqK-a2N_ttDth-31" value="" style="shape=partialRectangle;connectable=0;fillColor=none;top=0;left=0;bottom=0;right=0;editable=1;overflow=hidden;" vertex="1" parent="g4cRuFVaqK-a2N_ttDth-30">
          <mxGeometry width="30" height="30" as="geometry" />
        </mxCell>
        <mxCell id="g4cRuFVaqK-a2N_ttDth-32" value="role" style="shape=partialRectangle;connectable=0;fillColor=none;top=0;left=0;bottom=0;right=0;align=left;spacingLeft=6;overflow=hidden;" vertex="1" parent="g4cRuFVaqK-a2N_ttDth-30">
          <mxGeometry x="30" width="150" height="30" as="geometry" />
        </mxCell>
        <mxCell id="g4cRuFVaqK-a2N_ttDth-33" value="" style="shape=partialRectangle;collapsible=0;dropTarget=0;pointerEvents=0;fillColor=none;top=0;left=0;bottom=0;right=0;points=[[0,0.5],[1,0.5]];portConstraint=eastwest;" vertex="1" parent="g4cRuFVaqK-a2N_ttDth-14">
          <mxGeometry y="150" width="180" height="30" as="geometry" />
        </mxCell>
        <mxCell id="g4cRuFVaqK-a2N_ttDth-34" value="" style="shape=partialRectangle;connectable=0;fillColor=none;top=0;left=0;bottom=0;right=0;editable=1;overflow=hidden;" vertex="1" parent="g4cRuFVaqK-a2N_ttDth-33">
          <mxGeometry width="30" height="30" as="geometry" />
        </mxCell>
        <mxCell id="g4cRuFVaqK-a2N_ttDth-35" value="is_online" style="shape=partialRectangle;connectable=0;fillColor=none;top=0;left=0;bottom=0;right=0;align=left;spacingLeft=6;overflow=hidden;" vertex="1" parent="g4cRuFVaqK-a2N_ttDth-33">
          <mxGeometry x="30" width="150" height="30" as="geometry" />
        </mxCell>
        <mxCell id="g4cRuFVaqK-a2N_ttDth-36" value="" style="shape=partialRectangle;collapsible=0;dropTarget=0;pointerEvents=0;fillColor=none;top=0;left=0;bottom=0;right=0;points=[[0,0.5],[1,0.5]];portConstraint=eastwest;" vertex="1" parent="g4cRuFVaqK-a2N_ttDth-14">
          <mxGeometry y="180" width="180" height="30" as="geometry" />
        </mxCell>
        <mxCell id="g4cRuFVaqK-a2N_ttDth-37" value="" style="shape=partialRectangle;connectable=0;fillColor=none;top=0;left=0;bottom=0;right=0;editable=1;overflow=hidden;" vertex="1" parent="g4cRuFVaqK-a2N_ttDth-36">
          <mxGeometry width="30" height="30" as="geometry" />
        </mxCell>
        <mxCell id="g4cRuFVaqK-a2N_ttDth-38" value="last_online_time" style="shape=partialRectangle;connectable=0;fillColor=none;top=0;left=0;bottom=0;right=0;align=left;spacingLeft=6;overflow=hidden;" vertex="1" parent="g4cRuFVaqK-a2N_ttDth-36">
          <mxGeometry x="30" width="150" height="30" as="geometry" />
        </mxCell>
        <mxCell id="g4cRuFVaqK-a2N_ttDth-39" value="GAMES" style="shape=table;startSize=30;container=1;collapsible=1;childLayout=tableLayout;fixedRows=1;rowLines=0;fontStyle=1;align=center;resizeLast=1;" vertex="1" parent="1">
          <mxGeometry x="40" y="530" width="180" height="100" as="geometry" />
        </mxCell>
        <mxCell id="g4cRuFVaqK-a2N_ttDth-40" value="" style="shape=partialRectangle;collapsible=0;dropTarget=0;pointerEvents=0;fillColor=none;top=0;left=0;bottom=1;right=0;points=[[0,0.5],[1,0.5]];portConstraint=eastwest;" vertex="1" parent="g4cRuFVaqK-a2N_ttDth-39">
          <mxGeometry y="30" width="180" height="30" as="geometry" />
        </mxCell>
        <mxCell id="g4cRuFVaqK-a2N_ttDth-41" value="PK" style="shape=partialRectangle;connectable=0;fillColor=none;top=0;left=0;bottom=0;right=0;fontStyle=1;overflow=hidden;" vertex="1" parent="g4cRuFVaqK-a2N_ttDth-40">
          <mxGeometry width="30" height="30" as="geometry" />
        </mxCell>
        <mxCell id="g4cRuFVaqK-a2N_ttDth-42" value="id" style="shape=partialRectangle;connectable=0;fillColor=none;top=0;left=0;bottom=0;right=0;align=left;spacingLeft=6;fontStyle=5;overflow=hidden;" vertex="1" parent="g4cRuFVaqK-a2N_ttDth-40">
          <mxGeometry x="30" width="150" height="30" as="geometry" />
        </mxCell>
        <mxCell id="g4cRuFVaqK-a2N_ttDth-43" value="" style="shape=partialRectangle;collapsible=0;dropTarget=0;pointerEvents=0;fillColor=none;top=0;left=0;bottom=0;right=0;points=[[0,0.5],[1,0.5]];portConstraint=eastwest;" vertex="1" parent="g4cRuFVaqK-a2N_ttDth-39">
          <mxGeometry y="60" width="180" height="30" as="geometry" />
        </mxCell>
        <mxCell id="g4cRuFVaqK-a2N_ttDth-44" value="" style="shape=partialRectangle;connectable=0;fillColor=none;top=0;left=0;bottom=0;right=0;editable=1;overflow=hidden;" vertex="1" parent="g4cRuFVaqK-a2N_ttDth-43">
          <mxGeometry width="30" height="30" as="geometry" />
        </mxCell>
        <mxCell id="g4cRuFVaqK-a2N_ttDth-45" value="name" style="shape=partialRectangle;connectable=0;fillColor=none;top=0;left=0;bottom=0;right=0;align=left;spacingLeft=6;overflow=hidden;" vertex="1" parent="g4cRuFVaqK-a2N_ttDth-43">
          <mxGeometry x="30" width="150" height="30" as="geometry" />
        </mxCell>
        <mxCell id="g4cRuFVaqK-a2N_ttDth-53" value="STREAMERS" style="shape=table;startSize=30;container=1;collapsible=1;childLayout=tableLayout;fixedRows=1;rowLines=0;fontStyle=1;align=center;resizeLast=1;" vertex="1" parent="1">
          <mxGeometry x="324" y="530" width="180" height="160" as="geometry" />
        </mxCell>
        <mxCell id="g4cRuFVaqK-a2N_ttDth-54" value="" style="shape=partialRectangle;collapsible=0;dropTarget=0;pointerEvents=0;fillColor=none;top=0;left=0;bottom=1;right=0;points=[[0,0.5],[1,0.5]];portConstraint=eastwest;" vertex="1" parent="g4cRuFVaqK-a2N_ttDth-53">
          <mxGeometry y="30" width="180" height="30" as="geometry" />
        </mxCell>
        <mxCell id="g4cRuFVaqK-a2N_ttDth-55" value="PK" style="shape=partialRectangle;connectable=0;fillColor=none;top=0;left=0;bottom=0;right=0;fontStyle=1;overflow=hidden;" vertex="1" parent="g4cRuFVaqK-a2N_ttDth-54">
          <mxGeometry width="30" height="30" as="geometry" />
        </mxCell>
        <mxCell id="g4cRuFVaqK-a2N_ttDth-56" value="id" style="shape=partialRectangle;connectable=0;fillColor=none;top=0;left=0;bottom=0;right=0;align=left;spacingLeft=6;fontStyle=5;overflow=hidden;" vertex="1" parent="g4cRuFVaqK-a2N_ttDth-54">
          <mxGeometry x="30" width="150" height="30" as="geometry" />
        </mxCell>
        <mxCell id="g4cRuFVaqK-a2N_ttDth-57" value="" style="shape=partialRectangle;collapsible=0;dropTarget=0;pointerEvents=0;fillColor=none;top=0;left=0;bottom=0;right=0;points=[[0,0.5],[1,0.5]];portConstraint=eastwest;" vertex="1" parent="g4cRuFVaqK-a2N_ttDth-53">
          <mxGeometry y="60" width="180" height="30" as="geometry" />
        </mxCell>
        <mxCell id="g4cRuFVaqK-a2N_ttDth-58" value="" style="shape=partialRectangle;connectable=0;fillColor=none;top=0;left=0;bottom=0;right=0;editable=1;overflow=hidden;" vertex="1" parent="g4cRuFVaqK-a2N_ttDth-57">
          <mxGeometry width="30" height="30" as="geometry" />
        </mxCell>
        <mxCell id="g4cRuFVaqK-a2N_ttDth-59" value="name" style="shape=partialRectangle;connectable=0;fillColor=none;top=0;left=0;bottom=0;right=0;align=left;spacingLeft=6;overflow=hidden;" vertex="1" parent="g4cRuFVaqK-a2N_ttDth-57">
          <mxGeometry x="30" width="150" height="30" as="geometry" />
        </mxCell>
        <mxCell id="g4cRuFVaqK-a2N_ttDth-69" value="" style="shape=partialRectangle;collapsible=0;dropTarget=0;pointerEvents=0;fillColor=none;top=0;left=0;bottom=0;right=0;points=[[0,0.5],[1,0.5]];portConstraint=eastwest;" vertex="1" parent="g4cRuFVaqK-a2N_ttDth-53">
          <mxGeometry y="90" width="180" height="30" as="geometry" />
        </mxCell>
        <mxCell id="g4cRuFVaqK-a2N_ttDth-70" value="" style="shape=partialRectangle;connectable=0;fillColor=none;top=0;left=0;bottom=0;right=0;editable=1;overflow=hidden;" vertex="1" parent="g4cRuFVaqK-a2N_ttDth-69">
          <mxGeometry width="30" height="30" as="geometry" />
        </mxCell>
        <mxCell id="g4cRuFVaqK-a2N_ttDth-71" value="activity" style="shape=partialRectangle;connectable=0;fillColor=none;top=0;left=0;bottom=0;right=0;align=left;spacingLeft=6;overflow=hidden;" vertex="1" parent="g4cRuFVaqK-a2N_ttDth-69">
          <mxGeometry x="30" width="150" height="30" as="geometry" />
        </mxCell>
        <mxCell id="g4cRuFVaqK-a2N_ttDth-66" value="" style="shape=partialRectangle;collapsible=0;dropTarget=0;pointerEvents=0;fillColor=none;top=0;left=0;bottom=0;right=0;points=[[0,0.5],[1,0.5]];portConstraint=eastwest;" vertex="1" parent="g4cRuFVaqK-a2N_ttDth-53">
          <mxGeometry y="120" width="180" height="30" as="geometry" />
        </mxCell>
        <mxCell id="g4cRuFVaqK-a2N_ttDth-67" value="            " style="shape=partialRectangle;connectable=0;fillColor=none;top=0;left=0;bottom=0;right=0;editable=1;overflow=hidden;" vertex="1" parent="g4cRuFVaqK-a2N_ttDth-66">
          <mxGeometry width="30" height="30" as="geometry" />
        </mxCell>
        <mxCell id="g4cRuFVaqK-a2N_ttDth-68" value="is_online" style="shape=partialRectangle;connectable=0;fillColor=none;top=0;left=0;bottom=0;right=0;align=left;spacingLeft=6;overflow=hidden;" vertex="1" parent="g4cRuFVaqK-a2N_ttDth-66">
          <mxGeometry x="30" width="150" height="30" as="geometry" />
        </mxCell>
        <mxCell id="g4cRuFVaqK-a2N_ttDth-72" value="" style="edgeStyle=entityRelationEdgeStyle;fontSize=12;html=1;endArrow=ERmany;startArrow=ERmany;exitX=1.017;exitY=0.14;exitDx=0;exitDy=0;entryX=-0.006;entryY=0.1;entryDx=0;entryDy=0;exitPerimeter=0;entryPerimeter=0;" edge="1" parent="1" source="g4cRuFVaqK-a2N_ttDth-39" target="g4cRuFVaqK-a2N_ttDth-53">
          <mxGeometry width="100" height="100" relative="1" as="geometry">
            <mxPoint x="110" y="910" as="sourcePoint" />
            <mxPoint x="210" y="810" as="targetPoint" />
          </mxGeometry>
        </mxCell>
        <mxCell id="g4cRuFVaqK-a2N_ttDth-73" value="CLIPS" style="shape=table;startSize=30;container=1;collapsible=1;childLayout=tableLayout;fixedRows=1;rowLines=0;fontStyle=1;align=center;resizeLast=1;" vertex="1" parent="1">
          <mxGeometry x="630" y="530" width="180" height="160" as="geometry" />
        </mxCell>
        <mxCell id="g4cRuFVaqK-a2N_ttDth-74" value="" style="shape=partialRectangle;collapsible=0;dropTarget=0;pointerEvents=0;fillColor=none;top=0;left=0;bottom=1;right=0;points=[[0,0.5],[1,0.5]];portConstraint=eastwest;" vertex="1" parent="g4cRuFVaqK-a2N_ttDth-73">
          <mxGeometry y="30" width="180" height="30" as="geometry" />
        </mxCell>
        <mxCell id="g4cRuFVaqK-a2N_ttDth-75" value="PK" style="shape=partialRectangle;connectable=0;fillColor=none;top=0;left=0;bottom=0;right=0;fontStyle=1;overflow=hidden;" vertex="1" parent="g4cRuFVaqK-a2N_ttDth-74">
          <mxGeometry width="30" height="30" as="geometry" />
        </mxCell>
        <mxCell id="g4cRuFVaqK-a2N_ttDth-76" value="ID&#xa;" style="shape=partialRectangle;connectable=0;fillColor=none;top=0;left=0;bottom=0;right=0;align=left;spacingLeft=6;fontStyle=5;overflow=hidden;" vertex="1" parent="g4cRuFVaqK-a2N_ttDth-74">
          <mxGeometry x="30" width="150" height="30" as="geometry" />
        </mxCell>
        <mxCell id="g4cRuFVaqK-a2N_ttDth-77" value="" style="shape=partialRectangle;collapsible=0;dropTarget=0;pointerEvents=0;fillColor=none;top=0;left=0;bottom=0;right=0;points=[[0,0.5],[1,0.5]];portConstraint=eastwest;" vertex="1" parent="g4cRuFVaqK-a2N_ttDth-73">
          <mxGeometry y="60" width="180" height="30" as="geometry" />
        </mxCell>
        <mxCell id="g4cRuFVaqK-a2N_ttDth-78" value="" style="shape=partialRectangle;connectable=0;fillColor=none;top=0;left=0;bottom=0;right=0;editable=1;overflow=hidden;" vertex="1" parent="g4cRuFVaqK-a2N_ttDth-77">
          <mxGeometry width="30" height="30" as="geometry" />
        </mxCell>
        <mxCell id="g4cRuFVaqK-a2N_ttDth-79" value="name" style="shape=partialRectangle;connectable=0;fillColor=none;top=0;left=0;bottom=0;right=0;align=left;spacingLeft=6;overflow=hidden;" vertex="1" parent="g4cRuFVaqK-a2N_ttDth-77">
          <mxGeometry x="30" width="150" height="30" as="geometry" />
        </mxCell>
        <mxCell id="g4cRuFVaqK-a2N_ttDth-80" value="" style="shape=partialRectangle;collapsible=0;dropTarget=0;pointerEvents=0;fillColor=none;top=0;left=0;bottom=0;right=0;points=[[0,0.5],[1,0.5]];portConstraint=eastwest;" vertex="1" parent="g4cRuFVaqK-a2N_ttDth-73">
          <mxGeometry y="90" width="180" height="30" as="geometry" />
        </mxCell>
        <mxCell id="g4cRuFVaqK-a2N_ttDth-81" value="" style="shape=partialRectangle;connectable=0;fillColor=none;top=0;left=0;bottom=0;right=0;editable=1;overflow=hidden;" vertex="1" parent="g4cRuFVaqK-a2N_ttDth-80">
          <mxGeometry width="30" height="30" as="geometry" />
        </mxCell>
        <mxCell id="g4cRuFVaqK-a2N_ttDth-82" value="time_created" style="shape=partialRectangle;connectable=0;fillColor=none;top=0;left=0;bottom=0;right=0;align=left;spacingLeft=6;overflow=hidden;" vertex="1" parent="g4cRuFVaqK-a2N_ttDth-80">
          <mxGeometry x="30" width="150" height="30" as="geometry" />
        </mxCell>
        <mxCell id="g4cRuFVaqK-a2N_ttDth-83" value="" style="shape=partialRectangle;collapsible=0;dropTarget=0;pointerEvents=0;fillColor=none;top=0;left=0;bottom=0;right=0;points=[[0,0.5],[1,0.5]];portConstraint=eastwest;" vertex="1" parent="g4cRuFVaqK-a2N_ttDth-73">
          <mxGeometry y="120" width="180" height="30" as="geometry" />
        </mxCell>
        <mxCell id="g4cRuFVaqK-a2N_ttDth-84" value="" style="shape=partialRectangle;connectable=0;fillColor=none;top=0;left=0;bottom=0;right=0;editable=1;overflow=hidden;" vertex="1" parent="g4cRuFVaqK-a2N_ttDth-83">
          <mxGeometry width="30" height="30" as="geometry" />
        </mxCell>
        <mxCell id="g4cRuFVaqK-a2N_ttDth-85" value="activity" style="shape=partialRectangle;connectable=0;fillColor=none;top=0;left=0;bottom=0;right=0;align=left;spacingLeft=6;overflow=hidden;" vertex="1" parent="g4cRuFVaqK-a2N_ttDth-83">
          <mxGeometry x="30" width="150" height="30" as="geometry" />
        </mxCell>
        <mxCell id="g4cRuFVaqK-a2N_ttDth-89" value="" style="edgeStyle=entityRelationEdgeStyle;fontSize=12;html=1;endArrow=ERmany;entryX=-0.017;entryY=0.106;entryDx=0;entryDy=0;entryPerimeter=0;exitX=1.028;exitY=0.081;exitDx=0;exitDy=0;exitPerimeter=0;" edge="1" parent="1" source="g4cRuFVaqK-a2N_ttDth-53" target="g4cRuFVaqK-a2N_ttDth-73">
          <mxGeometry width="100" height="100" relative="1" as="geometry">
            <mxPoint x="380" y="900" as="sourcePoint" />
            <mxPoint x="480" y="800" as="targetPoint" />
          </mxGeometry>
        </mxCell>
      </root>
    </mxGraphModel>
  </diagram>
</mxfile>
